<svg width="215.89384765625px" height="84.8px" xmlns="http://www.w3.org/2000/svg" viewBox="142.053076171875 32.6 215.89384765625 84.8" style="background: rgb(251, 253, 255);" preserveAspectRatio="xMidYMid"><defs><filter id="editing-hover" x="-100%" y="-100%" width="300%" height="300%"><feFlood flood-color="#e6eef4" result="flood"></feFlood><feComposite operator="in" in2="SourceAlpha" in="flood" result="shadow"></feComposite>
<feOffset dx="-4" dy="-4" in="SourceGraphic" result="offset-1"></feOffset>
<feOffset dx="4" dy="4" in="shadow" result="offset-2"></feOffset>
<feMerge>
<feMergeNode in="offset-2"></feMergeNode>
<feMergeNode in="offset-1"></feMergeNode>
</feMerge></filter></defs><g filter="url(#editing-hover)"><g transform="translate(178.67660796642303, 90.37500286102295)">
<path d="M17.84-6.31L17.84-6.31L17.84-6.31Q18.61-5.33 18.61-3.42L18.61-3.42L18.61-3.42Q18.61-1.52 17.16-0.35L17.16-0.35L17.16-0.35Q15.70 0.82 13.16 0.82L13.16 0.82L13.16 0.82Q11.69 0.82 9.39 0.49L9.39 0.49L9.39 0.49Q4.88-0.21 3.59-0.21L3.59-0.21L3.59-0.21Q2.30-0.21 1.76-0.14L1.76-0.14L1.76-0.14Q1.23-0.08 0.37 0L0.37 0L5.33-27.06L14.31-27.06L10.21-4.51L10.21-4.51Q10.74-4.43 11.23-4.43L11.23-4.43L12.26-4.43L12.26-4.43Q15.70-4.43 17.84-6.31ZM30.30 0.82L30.30 0.82L30.30 0.82Q21.28 0.82 21.28-7.67L21.28-7.67L21.28-7.67Q21.28-13.69 24.60-17.59L24.60-17.59L24.60-17.59Q28.13-21.73 34.23-21.73L34.23-21.73L34.23-21.73Q38.66-21.73 40.92-19.68L40.92-19.68L40.92-19.68Q43.17-17.63 43.17-13.33L43.17-13.33L43.17-13.33Q43.17-6.77 39.65-2.95L39.65-2.95L39.65-2.95Q36.20 0.82 30.30 0.82ZM31.37-17.02L31.37-17.02L31.37-17.02Q30.87-15.91 30.48-14.25L30.48-14.25L30.48-14.25Q30.09-12.59 29.60-9.96L29.60-9.96L29.60-9.96Q29.11-7.34 29.11-4.10L29.11-4.10L29.11-4.10Q29.11-3.03 29.46-2.34L29.46-2.34L29.46-2.34Q29.81-1.64 30.75-1.64L30.75-1.64L30.75-1.64Q31.69-1.64 32.29-2.09L32.29-2.09L32.29-2.09Q32.88-2.54 33.33-3.61L33.33-3.61L33.33-3.61Q34.15-5.49 34.81-9.00L34.81-9.00L34.81-9.00Q35.47-12.51 35.53-14.02L35.53-14.02L35.53-14.02Q35.59-15.54 35.59-16.67L35.59-16.67L35.59-16.67Q35.59-17.79 35.26-18.53L35.26-18.53L35.26-18.53Q34.93-19.27 34.01-19.27L34.01-19.27L34.01-19.27Q33.09-19.27 32.47-18.70L32.47-18.70L32.47-18.70Q31.86-18.12 31.37-17.02ZM56.17-19.43L56.17-19.43L56.17-19.43Q58.38-21.73 63.06-21.73L63.06-21.73L63.06-21.73Q65.64-21.73 67.06-20.36L67.06-20.36L67.06-20.36Q68.47-18.98 68.47-16.46L68.47-16.46L68.47-16.46Q68.47-13.94 67.06-12.16L67.06-12.16L67.06-12.16Q65.64-10.37 63.02-9.63L63.02-9.63L63.02-9.63Q63.22-8.81 63.51-7.95L63.51-7.95L64.08-6.31L64.08-6.31Q64.86-4.22 65.48-3.49L65.48-3.49L65.48-3.49Q66.09-2.75 66.91-2.50L66.91-2.50L66.91-2.50Q66.46-0.82 64.82 0.08L64.82 0.08L64.82 0.08Q63.51 0.82 61.71 0.82L61.71 0.82L61.71 0.82Q56.42 0.82 55.72-7.34L55.72-7.34L55.72-7.34Q55.60-8.49 55.60-9.63L55.60-9.63L55.60-9.63Q57.65-10.21 59.08-12.14L59.08-12.14L59.08-12.14Q60.52-14.06 60.52-16.32L60.52-16.32L60.52-16.32Q60.52-18.57 58.92-18.57L58.92-18.57L58.92-18.57Q57.77-18.57 56.87-17.30L56.87-17.30L56.87-17.30Q55.97-16.03 55.56-13.86L55.56-13.86L52.85 0L44.57 0.82L50.31-28.70L58.55-29.52L57.61-24.64L57.61-24.64Q56.99-21.20 56.17-19.43ZM72.14-1.23L72.14-1.23L72.14-1.23Q71.18-2.30 70.75-3.98L70.75-3.98L70.75-3.98Q70.32-5.66 70.32-8.41L70.32-8.41L70.32-8.41Q70.32-11.15 71.26-13.65L71.26-13.65L71.26-13.65Q72.20-16.15 73.92-17.96L73.92-17.96L73.92-17.96Q77.45-21.73 83.27-21.73L83.27-21.73L83.27-21.73Q85.36-21.73 86.88-21.03L86.88-21.03L93.89-21.73L90.86-5.74L90.86-5.74Q90.73-5.25 90.73-4.35L90.73-4.35L90.73-4.35Q90.73-3.44 91.29-2.87L91.29-2.87L91.29-2.87Q91.84-2.30 92.66-2.21L92.66-2.21L92.66-2.21Q92.25-0.82 90.75 0L90.75 0L90.75 0Q89.26 0.82 87.58 0.82L87.58 0.82L87.58 0.82Q85.90 0.82 84.77 0.18L84.77 0.18L84.77 0.18Q83.64-0.45 83.31-1.52L83.31-1.52L83.31-1.52Q82.66-0.49 81.26 0.16L81.26 0.16L81.26 0.16Q79.87 0.82 78.00 0.82L78.00 0.82L78.00 0.82Q76.14 0.82 74.62 0.33L74.62 0.33L74.62 0.33Q73.10-0.16 72.14-1.23ZM80.79-17.88L80.79-17.88L80.79-17.88Q80.32-17.14 79.91-15.89L79.91-15.89L79.91-15.89Q79.50-14.64 78.82-11.30L78.82-11.30L78.82-11.30Q78.15-7.95 78.15-5.58L78.15-5.58L78.15-5.58Q78.15-3.20 78.52-2.50L78.52-2.50L78.52-2.50Q78.88-1.80 79.54-1.80L79.54-1.80L79.54-1.80Q80.85-1.80 81.82-3.05L81.82-3.05L81.82-3.05Q82.78-4.31 83.15-6.52L83.15-6.52L85.32-18.53L85.32-18.53Q84.46-19.27 83.46-19.27L83.46-19.27L83.46-19.27Q82.45-19.27 81.86-18.94L81.86-18.94L81.86-18.94Q81.26-18.61 80.79-17.88ZM105.90-2.25L105.90-2.25L105.90-2.25Q104.63 0.82 100.57 0.82L100.57 0.82L100.57 0.82Q98.52 0.82 97.21-0.61L97.21-0.61L97.21-0.61Q96.15-1.80 96.15-3.16L96.15-3.16L96.15-3.16Q96.15-6.23 97.58-12.96L97.58-12.96L100.57-28.70L108.90-29.52L104.92-8.77L104.92-8.77Q104.22-5.74 104.22-4.67L104.22-4.67L104.22-4.67Q104.22-2.34 105.90-2.25ZM119.23-2.25L119.23-2.25L119.23-2.25Q117.96 0.82 113.90 0.82L113.90 0.82L113.90 0.82Q111.81 0.82 110.50-0.61L110.50-0.61L110.50-0.61Q109.39-1.89 109.39-3.16L109.39-3.16L109.39-3.16Q109.39-6.48 110.91-12.96L110.91-12.96L112.42-20.91L120.75-21.73L118.24-8.77L118.24-8.77Q117.55-5.74 117.55-4.67L117.55-4.67L117.55-4.67Q117.55-2.34 119.23-2.25ZM113.16-26.61L113.16-26.61L113.16-26.61Q113.16-28.21 114.49-29.07L114.49-29.07L114.49-29.07Q115.83-29.93 117.75-29.93L117.75-29.93L117.75-29.93Q119.68-29.93 120.85-29.07L120.85-29.07L120.85-29.07Q122.02-28.21 122.02-26.61L122.02-26.61L122.02-26.61Q122.02-25.01 120.72-24.19L120.72-24.19L120.72-24.19Q119.43-23.37 117.51-23.37L117.51-23.37L117.51-23.37Q115.58-23.37 114.37-24.19L114.37-24.19L114.37-24.19Q113.16-25.01 113.16-26.61ZM130.61 0.41L130.61 0.41L130.61 0.41Q128.66 0 127.65-0.18L127.65-0.18L127.65-0.18Q126.65-0.37 125.48-0.37L125.48-0.37L125.48-0.37Q124.31-0.37 123.16 0.04L123.16 0.04L123.16 0.04Q122.55-0.33 122.16-1.07L122.16-1.07L122.16-1.07Q121.77-1.80 121.77-2.95L121.77-2.95L121.77-2.95Q121.77-5.37 124.23-7.22L124.23-7.22L134.64-14.72L134.64-14.72Q131.73-15.54 129.09-15.54L129.09-15.54L129.09-15.54Q126.44-15.54 125.50-13.74L125.50-13.74L125.50-13.74Q124.11-15.38 124.11-17.96L124.11-17.96L124.11-17.96Q124.11-19.68 125.36-20.81L125.36-20.81L125.36-20.81Q126.61-21.94 129.23-21.94L129.23-21.94L129.23-21.94Q130.71-21.94 132.04-21.75L132.04-21.75L132.04-21.75Q133.37-21.57 134.56-21.40L134.56-21.40L136.78-21.07L136.78-21.07Q137.84-20.91 138.93-20.91L138.93-20.91L138.93-20.91Q140.02-20.91 140.84-21.36L140.84-21.36L140.84-21.36Q141.90-20.38 141.90-19.02L141.90-19.02L141.90-19.02Q141.90-16.89 139.28-14.68L139.28-14.68L128.90-6.93L128.90-6.93Q132.10-5.99 133.74-5.99L133.74-5.99L133.74-5.99Q137.19-5.99 138.66-7.63L138.66-7.63L138.66-7.63Q139.81-6.31 139.81-4.04L139.81-4.04L139.81-4.04Q139.81-1.76 138.33-0.47L138.33-0.47L138.33-0.47Q136.86 0.82 134.19 0.82L134.19 0.82L134.19 0.82Q132.55 0.82 130.61 0.41Z" fill="#ffd5af">
</path>
</g>
</g>
<style>text {
  font-size: 64px;
  font-family: Arial Black;
  dominant-baseline: central;
  text-anchor: middle;
}</style></svg>
